<?xml version="1.0" encoding="UTF-8"?>
<!DOCTYPE svg PUBLIC "-//W3C//DTD SVG 1.1//EN" "http://www.w3.org/Graphics/SVG/1.1/DTD/svg11.dtd">
<svg xmlns="http://www.w3.org/2000/svg" version="1.1" width="360px" height="360px" style="shape-rendering:geometricPrecision; text-rendering:geometricPrecision; image-rendering:optimizeQuality; fill-rule:evenodd; clip-rule:evenodd" xmlns:xlink="http://www.w3.org/1999/xlink">
<g><path style="opacity:0.999" fill="#068cef" d="M 167.5,2.5 C 225.716,0.114011 274.882,20.7807 315,64.5C 354.592,114.081 366.258,169.414 350,230.5C 330.081,290.753 289.914,330.586 229.5,350C 155.639,367.819 93.4722,348.652 43,292.5C 1.27013,237.204 -7.72987,177.204 16,112.5C 45.8632,47.4776 96.3632,10.811 167.5,2.5 Z"/></g>
<g><path style="opacity:1" fill="#3f3f40" d="M 74.5,122.5 C 95.528,122.126 116.528,122.626 137.5,124C 159.7,130.545 169.2,145.378 166,168.5C 160.895,185.648 149.395,195.148 131.5,197C 119.838,197.5 108.171,197.667 96.5,197.5C 96.5,213.5 96.5,229.5 96.5,245.5C 89.1667,245.5 81.8333,245.5 74.5,245.5C 74.5,204.5 74.5,163.5 74.5,122.5 Z"/></g>
<g><path style="opacity:1" fill="#fcfdfe" d="M 264.5,123.5 C 264.791,129.923 264.458,136.256 263.5,142.5C 245,141.173 226.5,141.173 208,142.5C 207.18,153.41 207.347,164.243 208.5,175C 223.496,175.5 238.496,175.667 253.5,175.5C 253.5,181.5 253.5,187.5 253.5,193.5C 238.167,193.5 222.833,193.5 207.5,193.5C 207.179,204.748 207.513,215.915 208.5,227C 227.497,227.5 246.497,227.667 265.5,227.5C 265.5,233.833 265.5,240.167 265.5,246.5C 238.833,246.5 212.167,246.5 185.5,246.5C 185.5,205.5 185.5,164.5 185.5,123.5C 211.833,123.5 238.167,123.5 264.5,123.5 Z"/></g>
<g><path style="opacity:1" fill="#63b5f1" d="M 264.5,123.5 C 265.165,126.482 265.498,129.648 265.5,133C 265.485,136.576 264.818,139.742 263.5,142.5C 264.458,136.256 264.791,129.923 264.5,123.5 Z"/></g>
<g><path style="opacity:1" fill="#018bed" d="M 96.5,141.5 C 108.562,141.085 120.562,141.585 132.5,143C 143.472,149.131 146.305,157.964 141,169.5C 137.774,174.205 133.274,177.038 127.5,178C 117.172,178.5 106.839,178.666 96.5,178.5C 96.5,166.167 96.5,153.833 96.5,141.5 Z"/></g>
</svg>
